<?xml version="1.0" encoding="UTF-8"?>
<svg version="1.1" xmlns="http://www.w3.org/2000/svg" width="194" height="190">
<path d="M0 0 C0.77103058 -0.00807175 1.54206116 -0.01614349 2.3364563 -0.02445984 C3.96516732 -0.03822351 5.59390625 -0.04897978 7.22265625 -0.05688477 C8.853279 -0.06831587 10.48386702 -0.08862412 12.11425781 -0.1184082 C26.63795982 -0.38271714 41.19930665 0.85471253 54.1953125 7.98828125 C54.84685303 8.32972168 55.49839355 8.67116211 56.16967773 9.02294922 C62.12080199 12.22531506 67.54266299 16.02151061 72.8203125 20.23828125 C73.4390625 20.69332031 74.0578125 21.14835937 74.6953125 21.6171875 C92.7608815 35.62636716 102.26013475 59.82813953 105.31640625 81.69921875 C108.36614316 106.90392277 102.58852928 133.42873903 87.703125 154.19140625 C85.79650608 156.59446556 83.83634142 158.92679982 81.8203125 161.23828125 C80.92259301 162.34091497 80.02648333 163.4448636 79.1328125 164.55078125 C66.16605221 179.62025943 47.1804156 188.53350536 27.45755005 190.4703064 C22.59247454 190.7766512 17.73719509 190.80970265 12.86401367 190.75976562 C10.38685986 190.7383163 7.91261402 190.75970777 5.43554688 190.78515625 C-17.20141626 190.82715017 -40.32759051 184.46282485 -57.12109375 168.37890625 C-58.89169379 166.39057581 -60.52731332 164.32568315 -62.1796875 162.23828125 C-63.33210938 160.96404297 -63.33210938 160.96404297 -64.5078125 159.6640625 C-74.88566989 147.99693141 -81.96258579 134.58013813 -85.1796875 119.23828125 C-85.33163574 118.52978027 -85.48358398 117.8212793 -85.64013672 117.09130859 C-88.7807924 101.96495147 -89.33019658 86.2580793 -85.1796875 71.23828125 C-84.87417969 70.05363281 -84.56867188 68.86898437 -84.25390625 67.6484375 C-80.13363229 52.60128594 -72.68585318 39.77482394 -62.1796875 28.23828125 C-61.49519531 27.46097656 -60.81070313 26.68367188 -60.10546875 25.8828125 C-44.77077744 9.41431777 -22.30233981 0.22885475 0 0 Z " fill="#EBA602" transform="translate(88.1796875,-0.23828125)"/>
<path d="M0 0 C0.77103058 -0.00807175 1.54206116 -0.01614349 2.3364563 -0.02445984 C3.96516732 -0.03822351 5.59390625 -0.04897978 7.22265625 -0.05688477 C8.853279 -0.06831587 10.48386702 -0.08862412 12.11425781 -0.1184082 C26.63795982 -0.38271714 41.19930665 0.85471253 54.1953125 7.98828125 C54.84685303 8.32972168 55.49839355 8.67116211 56.16967773 9.02294922 C62.12080199 12.22531506 67.54266299 16.02151061 72.8203125 20.23828125 C73.4390625 20.69332031 74.0578125 21.14835937 74.6953125 21.6171875 C92.7608815 35.62636716 102.26013475 59.82813953 105.31640625 81.69921875 C108.36614316 106.90392277 102.58852928 133.42873903 87.703125 154.19140625 C85.79650608 156.59446556 83.83634142 158.92679982 81.8203125 161.23828125 C80.92259301 162.34091497 80.02648333 163.4448636 79.1328125 164.55078125 C66.16605221 179.62025943 47.1804156 188.53350536 27.45755005 190.4703064 C22.59247454 190.7766512 17.73719509 190.80970265 12.86401367 190.75976562 C10.38685986 190.7383163 7.91261402 190.75970777 5.43554688 190.78515625 C-17.20141626 190.82715017 -40.32759051 184.46282485 -57.12109375 168.37890625 C-58.89169379 166.39057581 -60.52731332 164.32568315 -62.1796875 162.23828125 C-63.33210938 160.96404297 -63.33210938 160.96404297 -64.5078125 159.6640625 C-74.88566989 147.99693141 -81.96258579 134.58013813 -85.1796875 119.23828125 C-85.33163574 118.52978027 -85.48358398 117.8212793 -85.64013672 117.09130859 C-88.7807924 101.96495147 -89.33019658 86.2580793 -85.1796875 71.23828125 C-84.87417969 70.05363281 -84.56867188 68.86898437 -84.25390625 67.6484375 C-80.13363229 52.60128594 -72.68585318 39.77482394 -62.1796875 28.23828125 C-61.49519531 27.46097656 -60.81070313 26.68367188 -60.10546875 25.8828125 C-44.77077744 9.41431777 -22.30233981 0.22885475 0 0 Z M-50.76171875 37.765625 C-64.70691173 52.33803806 -71.70730617 70.30270553 -73.1796875 90.23828125 C-73.28603516 91.46998047 -73.28603516 91.46998047 -73.39453125 92.7265625 C-73.96934362 106.03921703 -70.81060082 120.27058514 -65.1796875 132.23828125 C-64.73753906 133.17929688 -64.29539062 134.1203125 -63.83984375 135.08984375 C-55.24715123 151.98959911 -41.22369284 164.76219593 -23.61328125 171.62890625 C-5.31935292 177.2335186 13.61678998 175.16258872 30.4609375 166.25390625 C50.57335709 154.1864545 61.85305633 135.29535061 67.6328125 113.12109375 C72.22514076 90.0956701 67.2778216 67.71865555 54.83984375 48.1171875 C44.77642443 33.63470182 29.90014776 21.29588926 12.21484375 17.5859375 C-12.36094172 14.01783814 -32.81660151 20.20058589 -50.76171875 37.765625 Z " fill="#F7D605" transform="translate(88.1796875,-0.23828125)"/>
<path d="M0 0 C2.36091422 0.00851525 4.71940007 -0.02039885 7.08007812 -0.05200195 C20.5857734 -0.11569896 34.34337183 1.59504388 46.36914062 8.19604492 C47.02068115 8.53748535 47.67222168 8.87892578 48.34350586 9.23071289 C54.29463012 12.43307873 59.71649112 16.22927429 64.99414062 20.44604492 C65.61289063 20.90108398 66.23164063 21.35612305 66.86914062 21.82495117 C84.93470962 35.83413083 94.43396287 60.0359032 97.49023438 81.90698242 C100.53997129 107.11168644 94.7623574 133.6365027 79.87695312 154.39916992 C77.97033421 156.80222923 76.01016955 159.13456349 73.99414062 161.44604492 C73.09642114 162.54867864 72.20031145 163.65262727 71.30664062 164.75854492 C58.41067196 179.74575175 39.2468463 188.96206838 19.54568481 190.65664673 C13.6311196 190.94880928 7.72507949 190.86022859 1.80664062 190.75854492 C0.05600034 190.74701152 -1.69465246 190.73723895 -3.4453125 190.72924805 C-5.12566432 190.71584712 -6.8060049 190.70093063 -8.48632812 190.68432617 C-9.25510788 190.67693924 -10.02388763 190.66955231 -10.81596375 190.66194153 C-14.97186516 190.58841562 -18.92658207 190.24801623 -23.00585938 189.44604492 C-23.00585938 189.11604492 -23.00585938 188.78604492 -23.00585938 188.44604492 C-22.35738037 188.46175537 -21.70890137 188.47746582 -21.04077148 188.49365234 C8.08079169 189.10470241 31.82734161 183.61711927 53.99414062 163.44604492 C72.03224715 145.69088908 80.91521225 120.15565439 81.36914062 95.25854492 C81.31988011 71.27961873 71.64149781 48.38249444 55.99414062 30.44604492 C55.46433594 29.83245117 54.93453125 29.21885742 54.38867188 28.58666992 C40.21667602 13.32990401 18.40468768 4.01301955 -2.19726562 3.24291992 C-15.11107329 3.0156674 -26.85952347 4.79302562 -39.15039062 8.99291992 C-41.00585938 9.44604492 -41.00585938 9.44604492 -43.00585938 8.44604492 C-28.90976695 1.80486916 -15.37782259 -0.08412723 0 0 Z " fill="#E79F08" transform="translate(96.005859375,-0.446044921875)"/>
<path d="M0 0 C0.99 0.495 0.99 0.495 2 1 C9.26170568 25.80641065 7.04920986 52.20005656 -5.10668945 75.18310547 C-16.30326126 95.42444156 -34.32413755 112.39854468 -56.84765625 119.2265625 C-71.93757166 123.47544837 -85.60851304 123.82135276 -101 121 C-100.38511719 120.20335937 -100.38511719 120.20335937 -99.7578125 119.390625 C-99.21898438 118.68421875 -98.68015625 117.9778125 -98.125 117.25 C-97.59132813 116.55390625 -97.05765625 115.8578125 -96.5078125 115.140625 C-94.91327501 113.09381374 -94.91327501 113.09381374 -94.25390625 110.7734375 C-93.63322266 109.89558594 -93.63322266 109.89558594 -93 109 C-89.76953125 108.4609375 -89.76953125 108.4609375 -85.8125 108.375 C-80.4913984 108.23706516 -76.06732063 107.64298792 -71 106 C-69.89140625 105.65582031 -68.7828125 105.31164062 -67.640625 104.95703125 C-48.30641175 98.43062056 -34.20187961 86.16284946 -24.75 68.0625 C-19.30137537 56.58781498 -15.6966467 44.96624149 -16.1640625 32.1875 C-16.19532227 31.13208008 -16.22658203 30.07666016 -16.25878906 28.98925781 C-16.33492237 26.86712173 -16.44755081 24.74590941 -16.60058594 22.62792969 C-16.75866793 18.3037576 -16.8618184 15.24910091 -14.35058594 11.609375 C-12.33277437 9.5604912 -10.2717833 7.76015933 -8 6 C-7.1646875 5.3090625 -6.329375 4.618125 -5.46875 3.90625 C-4.8190625 3.4421875 -4.169375 2.978125 -3.5 2.5 C-2.8296875 2.0153125 -2.159375 1.530625 -1.46875 1.03125 C-0.9840625 0.6909375 -0.499375 0.350625 0 0 Z " fill="#FEF101" transform="translate(172,66)"/>
<path d="M0 0 C-1.38080956 1.65697147 -2.76968776 3.30768072 -4.19140625 4.9296875 C-5.37487339 6.2844123 -6.53022719 7.66435085 -7.65234375 9.0703125 C-12.18438629 14.28662404 -16.50387286 16.12958087 -23.08105469 18.08007812 C-40.81027792 23.45575371 -54.61587746 35.85876498 -63.61328125 51.87109375 C-67.50848234 59.30387201 -70.62723509 67.06842625 -72.5234375 75.26171875 C-74.59550155 83.38481044 -80.44919325 89.91417573 -86 96 C-87.485 96.495 -87.485 96.495 -89 97 C-92.78903518 76.11882072 -84.44612415 54.18585764 -73 37 C-70.19789182 33.12834794 -67.21672846 29.53220446 -64 26 C-63.31550781 25.22269531 -62.63101563 24.44539063 -61.92578125 23.64453125 C-51.57539109 12.52886271 -39.54301122 6.52718335 -25 3 C-24.00637451 2.75660889 -24.00637451 2.75660889 -22.99267578 2.50830078 C-15.29101446 0.67601258 -7.92078959 -0.5032031 0 0 Z " fill="#FCEE08" transform="translate(90,2)"/>
<path d="M0 0 C0.66 0.33 1.32 0.66 2 1 C1.3709375 1.67804687 0.741875 2.35609375 0.09375 3.0546875 C-4.75960081 8.33197558 -9.43171863 13.65254453 -13.8359375 19.31640625 C-15.50441371 21.38543722 -17.20134983 23.36557849 -18.9765625 25.33984375 C-19.48711182 25.91557129 -19.99766113 26.49129883 -20.52368164 27.08447266 C-21.53150763 28.21621823 -22.55121007 29.33752411 -23.58374023 30.44677734 C-25.70621023 32.85017894 -26.9723013 34.35910936 -27.11328125 37.62109375 C-25.64734342 40.75357143 -23.86944343 42.15085063 -21.125 44.25 C-20.13628906 45.02085938 -19.14757812 45.79171875 -18.12890625 46.5859375 C-17.09636719 47.38257813 -16.06382813 48.17921875 -15 49 C-13.01588584 50.61895544 -11.03649961 52.24372711 -9.0625 53.875 C-6.08783003 56.31957414 -3.09840617 58.71393698 0 61 C-1.58352544 65.35728241 -4.97945443 67.82281165 -8.4375 70.6875 C-9.06857666 71.21931885 -9.69965332 71.7511377 -10.34985352 72.29907227 C-14.88885847 76.11284624 -19.4864351 79.85423526 -24.08984375 83.58984375 C-27.60930497 86.50461901 -31.05543378 89.49744328 -34.5 92.5 C-51.49839325 107.29505722 -51.49839325 107.29505722 -55.23828125 109.05078125 C-57.35851217 109.93358296 -57.35851217 109.93358296 -58 113 C-58.66 112.67 -59.32 112.34 -60 112 C-59.22398438 111.05382812 -58.44796875 110.10765625 -57.6484375 109.1328125 C-50.90262695 100.88206988 -44.2675035 92.5573755 -37.75927734 84.11767578 C-37.20965332 83.40595215 -36.6600293 82.69422852 -36.09375 81.9609375 C-35.57425781 81.28385742 -35.05476563 80.60677734 -34.51953125 79.90917969 C-33.08802489 78.11059683 -31.57692495 76.42659204 -30.03125 74.7265625 C-27.74423459 72.29538106 -27.74423459 72.29538106 -28.19750977 70.00048828 C-29.57944335 66.55553428 -32.6322359 64.54577971 -35.4375 62.25 C-36.06624023 61.722854 -36.69498047 61.19570801 -37.34277344 60.65258789 C-41.85826505 56.88335882 -46.44860499 53.20926933 -51.109375 49.62109375 C-53 48 -53 48 -55 45 C-54.57291748 44.65332275 -54.14583496 44.30664551 -53.70581055 43.94946289 C-43.40146527 35.58557783 -43.40146527 35.58557783 -33.125 27.1875 C-29.76723073 24.43613384 -26.39340939 21.70728116 -23 19 C-15.22489008 12.79474534 -7.51778227 6.5154113 0 0 Z " fill="#F8D602" transform="translate(110,33)"/>
<path d="M0 0 C0 0.33 0 0.66 0 1 C-1.05574219 1.20302734 -1.05574219 1.20302734 -2.1328125 1.41015625 C-21.47408999 5.62685774 -36.36165393 16.57166897 -47 33 C-58.70308285 52.48271839 -62.67267889 75.41031099 -57.87084961 97.81884766 C-57.06915165 100.94116713 -56.07840135 103.96300678 -55 107 C-54.57589844 108.2065625 -54.15179688 109.413125 -53.71484375 110.65625 C-49.94995078 120.30444368 -44.65163991 128.45303835 -37.22265625 135.71484375 C-35 138 -35 138 -35 140 C-34.44054688 140.26296875 -33.88109375 140.5259375 -33.3046875 140.796875 C-30.77465185 142.11763938 -28.49069026 143.65369837 -26.125 145.25 C-19.73325022 149.37566258 -13.04794343 152.1911116 -6 155 C-6 155.33 -6 155.66 -6 156 C-17.98182332 155.40090883 -27.70762115 150.36827472 -37 143 C-37.83402344 142.34257812 -38.66804688 141.68515625 -39.52734375 141.0078125 C-55.64333254 127.44952301 -64.09592397 107.70317854 -66.75 87.125 C-66.85584861 85.75154978 -66.93959437 84.37619788 -67 83 C-67.03996094 82.26265625 -67.07992187 81.5253125 -67.12109375 80.765625 C-67.75915288 57.79549615 -59.83208294 36.73094435 -44.05664062 20.03491211 C-37.95441149 13.79103907 -31.72292548 9.70575273 -24 5.75 C-23.33524658 5.40807617 -22.67049316 5.06615234 -21.9855957 4.71386719 C-14.7549483 1.14699674 -8.06564192 -0.28805864 0 0 Z " fill="#DE8904" transform="translate(82,17)"/>
<path d="M0 0 C3.5959717 3.5959717 2.24313279 13.01255132 2.25537109 18.00244141 C2.18306972 23.71179937 1.55598569 29.24505278 0.625 34.875 C0.49899414 35.64175049 0.37298828 36.40850098 0.24316406 37.19848633 C-0.3910085 40.71055293 -0.99561453 42.99342179 -3 46 C-5.6015625 46.29296875 -5.6015625 46.29296875 -8.625 46.1875 C-10.12933594 46.14689453 -10.12933594 46.14689453 -11.6640625 46.10546875 C-12.43492187 46.07066406 -13.20578125 46.03585938 -14 46 C-14.19390729 43.68802845 -14.37996367 41.3753971 -14.5625 39.0625 C-14.71912109 37.13083984 -14.71912109 37.13083984 -14.87890625 35.16015625 C-14.91886719 34.11730469 -14.95882812 33.07445312 -15 32 C-14.67 31.67 -14.34 31.34 -14 31 C-13.95334266 28.66713319 -13.96237049 26.33302989 -14 24 C-14.03762951 21.66697011 -14.04665734 19.33286681 -14 17 C-13.67 16.67 -13.34 16.34 -13 16 C-13.00909546 13.24862398 -13.13305113 10.5101384 -13.2578125 7.76171875 C-12.95725456 4.5421057 -12.24888038 3.28549006 -10 1 C-6.50615721 -0.16461426 -3.66344611 -0.13568319 0 0 Z " fill="#E59C0C" transform="translate(192,78)"/>
<path d="M0 0 C2.36091422 0.00851525 4.71940007 -0.02039885 7.08007812 -0.05200195 C20.5857734 -0.11569896 34.34337183 1.59504388 46.36914062 8.19604492 C47.02068115 8.53748535 47.67222168 8.87892578 48.34350586 9.23071289 C54.29267349 12.43202585 59.72548421 16.22060001 64.99414062 20.44604492 C65.71730469 21.00549805 66.44046875 21.56495117 67.18554688 22.14135742 C70.40393343 24.72907025 72.27742441 26.35551826 72.99414062 30.44604492 C62.23019213 31.37308355 62.23019213 31.37308355 59.25976562 29.14526367 C58.12999167 27.60833091 57.05967015 26.02819483 55.99414062 24.44604492 C54.32799699 24.11010702 52.66128766 23.77696734 50.99414062 23.44604492 C49.14257812 21.95776367 49.14257812 21.95776367 47.36914062 20.13354492 C43.49341607 16.56991055 39.89088793 15.01287358 34.91992188 13.41088867 C31.8377068 12.39445726 28.90970008 11.17187103 25.93164062 9.88354492 C4.57998331 0.90645744 -17.3679907 1.54968779 -39.15039062 8.99291992 C-41.00585938 9.44604492 -41.00585938 9.44604492 -43.00585938 8.44604492 C-28.90976695 1.80486916 -15.37782259 -0.08412723 0 0 Z " fill="#E79C0A" transform="translate(96.005859375,-0.446044921875)"/>
<path d="M0 0 C0.66 0.33 1.32 0.66 2 1 C1.3709375 1.67804687 0.741875 2.35609375 0.09375 3.0546875 C-4.77006274 8.34335136 -9.43075143 13.69238763 -13.87890625 19.33984375 C-20.50890071 27.65480918 -27.50554618 35.6436222 -34.6953125 43.4765625 C-37.85398264 46.93503862 -40.9352602 50.45829738 -44 54 C-46.99220268 52.63629701 -49.29026529 51.05091917 -51.75 48.875 C-52.36359375 48.33617187 -52.9771875 47.79734375 -53.609375 47.2421875 C-54.06828125 46.83226562 -54.5271875 46.42234375 -55 46 C-51.77269234 42.69172047 -48.47265517 39.64960267 -44.875 36.75 C-43.43447266 35.58404297 -43.43447266 35.58404297 -41.96484375 34.39453125 C-40.98644531 33.60433594 -40.00804688 32.81414062 -39 32 C-37.1448955 30.48031078 -35.29071046 28.95949838 -33.4375 27.4375 C-29.97496245 24.60362175 -26.49766308 21.79039472 -23 19 C-15.22489008 12.79474534 -7.51778227 6.5154113 0 0 Z " fill="#FDF002" transform="translate(110,33)"/>
<path d="M0 0 C0.65484375 0.32613281 1.3096875 0.65226563 1.984375 0.98828125 C14.87937465 7.16258193 26.90973773 8.54598044 41 9 C41 9.33 41 9.66 41 10 C39.95199219 10.01417969 38.90398437 10.02835938 37.82421875 10.04296875 C36.44526858 10.08987182 35.06636367 10.13811921 33.6875 10.1875 C32.65206055 10.19620117 32.65206055 10.19620117 31.59570312 10.20507812 C29.2983674 10.25390458 29.2983674 10.25390458 26 11 C24.06509245 13.2940324 24.06509245 13.2940324 23 16 C21.68962066 17.68477344 20.36176922 19.35648543 19 21 C19.66 21.66 20.32 22.32 21 23 C8.75197437 22.19685078 -0.67269746 17.41626475 -11 11 C-10.34 10.67 -9.68 10.34 -9 10 C-8.01 10.33 -7.02 10.66 -6 11 C-5.7525 10.484375 -5.505 9.96875 -5.25 9.4375 C-3.60418384 6.22815849 -1.8023904 3.12414336 0 0 Z " fill="#F7D30A" transform="translate(53,165)"/>
<path d="M0 0 C4.37859255 0.50522222 6.81651224 3.17827222 10 6 C8.41647456 10.35728241 5.02054557 12.82281165 1.5625 15.6875 C0.93142334 16.21931885 0.30034668 16.7511377 -0.34985352 17.29907227 C-4.87903155 21.10458945 -9.4646292 24.84041411 -14.0625 28.5625 C-16.36332886 30.47169842 -18.62600036 32.40603144 -20.875 34.375 C-21.88348999 35.2578064 -21.88348999 35.2578064 -22.91235352 36.15844727 C-24.23655965 37.32173721 -25.55750818 38.48874861 -26.87475586 39.65991211 C-27.48198486 40.19366455 -28.08921387 40.72741699 -28.71484375 41.27734375 C-29.25230225 41.75421631 -29.78976074 42.23108887 -30.34350586 42.72241211 C-32.13484493 44.10400052 -33.95073001 45.0524461 -36 46 C-35.39876629 42.70277968 -34.30702123 40.82725103 -32.15625 38.27734375 C-31.57375488 37.57931641 -30.99125977 36.88128906 -30.39111328 36.16210938 C-29.7670459 35.42798828 -29.14297852 34.69386719 -28.5 33.9375 C-27.21595458 32.40510815 -25.93210035 30.87255608 -24.6484375 29.33984375 C-24.02163086 28.59589355 -23.39482422 27.85194336 -22.74902344 27.08544922 C-20.50939104 24.41502209 -18.31625633 21.71023809 -16.125 19 C-12.76549422 14.88351061 -9.2833856 10.89926803 -5.73046875 6.94921875 C-3.73284353 4.69907205 -1.84186646 2.37907751 0 0 Z " fill="#FDEE03" transform="translate(100,88)"/>
<path d="M0 0 C0.33 0 0.66 0 1 0 C1.125 6.75 1.125 6.75 0 9 C-0.07092842 11.2072923 -0.08415025 13.41667452 -0.0625 15.625 C-0.05347656 16.81351563 -0.04445312 18.00203125 -0.03515625 19.2265625 C-0.02355469 20.14179687 -0.01195312 21.05703125 0 22 C3.63 22 7.26 22 11 22 C11.33 21.34 11.66 20.68 12 20 C10.61793679 28.75306698 6.88066808 36.12452654 3 44 C1.71416016 43.91298828 1.71416016 43.91298828 0.40234375 43.82421875 C-7.40841865 43.36197502 -7.40841865 43.36197502 -14.3125 46.5 C-15.199375 47.325 -16.08625 48.15 -17 49 C-15.64420666 45.36591475 -13.97959831 41.96739734 -12.18212891 38.53271484 C-6.29891724 27.22010044 -2.89387336 16.42651414 -1.39453125 3.703125 C-1 1 -1 1 0 0 Z " fill="#E69E09" transform="translate(178,102)"/>
<path d="M0 0 C5.50985084 0.62082826 7.90334475 3.42583285 11.71875 7.1875 C13.8566968 9.1836237 13.8566968 9.1836237 16.53125 9.4375 C19 10 19 10 20.921875 12.58203125 C21.60765625 13.37996094 22.2934375 14.17789062 23 15 C26.01888448 15.22888582 26.01888448 15.22888582 29.25 14.6875 C35.27535865 14.41669736 35.27535865 14.41669736 38.5234375 17.03125 C40.56240959 19.60838944 42.32511601 22.17414893 44 25 C44.56460938 25.89332031 45.12921875 26.78664063 45.7109375 27.70703125 C47 30 47 30 47 32 C42.545 32.495 42.545 32.495 38 33 C38 36.63 38 40.26 38 44 C37.01 44.495 37.01 44.495 36 45 C35.52691406 43.98421875 35.05382812 42.9684375 34.56640625 41.921875 C26.80332129 25.61621499 17.07902507 12.94888833 2.125 2.56640625 C1.42375 2.04949219 0.7225 1.53257813 0 1 C0 0.67 0 0.34 0 0 Z " fill="#E89F05" transform="translate(134,14)"/>
<path d="M0 0 C0 3.86673467 -1.23007009 4.95500611 -3.5625 8 C-7.13135645 12.76692726 -10.39949774 17.63919639 -13.5546875 22.6875 C-14.67331921 24.47731074 -15.82923307 26.24384961 -17 28 C-17 28.99 -17 29.98 -17 31 C-15.3560342 32.67019223 -15.3560342 32.67019223 -13.0625 34.3125 C-12.16917969 34.99957031 -11.27585937 35.68664062 -10.35546875 36.39453125 C-9.83774902 36.79236816 -9.3200293 37.19020508 -8.78662109 37.60009766 C-5.09174329 40.49520961 -1.49181952 43.50842151 2.125 46.5 C3.62755486 47.7396431 5.13015531 48.97923094 6.6328125 50.21875 C7.75528966 51.14573486 8.87771818 52.07277865 10 53 C8.66231239 56.09056238 7.35447664 57.78833593 4.6484375 59.77734375 C3.62979614 60.53845459 3.62979614 60.53845459 2.59057617 61.31494141 C1.49386597 62.11810791 1.49386597 62.11810791 0.375 62.9375 C-1.16436974 64.08769303 -2.70208778 65.24009943 -4.23828125 66.39453125 C-5.02541504 66.98572754 -5.81254883 67.57692383 -6.62353516 68.18603516 C-11.10818803 71.60918811 -15.46015104 75.19444957 -19.82080078 78.77319336 C-22.83678319 81.24695475 -25.84877922 83.69810069 -29 86 C-29.66 85.67 -30.32 85.34 -31 85 C-24.79230385 79.24857552 -18.50208165 73.70456327 -11.92578125 68.375 C-8.53735242 65.62444629 -5.16566775 62.85589104 -1.8125 60.0625 C-0.9464917 59.35299194 -0.9464917 59.35299194 -0.06298828 58.62915039 C1.32961979 57.46370383 2.67027329 56.23670926 4 55 C4 54.34 4 53.68 4 53 C1.97273821 51.27667551 -0.06530486 49.66177516 -2.1875 48.0625 C-7.3542256 44.09440671 -12.41702461 40.03905061 -17.375 35.8125 C-17.93985107 35.33111572 -18.50470215 34.84973145 -19.08666992 34.35375977 C-20.39285585 33.23787637 -21.69671313 32.11926796 -23 31 C-22.67870919 25.55878472 -19.43705988 22.63789439 -15.9375 18.8125 C-14.75241108 17.48440558 -13.56881797 16.15497492 -12.38671875 14.82421875 C-11.80841309 14.17630371 -11.23010742 13.52838867 -10.63427734 12.86083984 C-7.7619146 9.59027682 -5.07912074 6.18056128 -2.390625 2.7578125 C-1 1 -1 1 0 0 Z " fill="#D26E03" transform="translate(105,41)"/>
<path d="M0 0 C4.08288689 1.3609623 4.88685817 3.47953322 7.1875 7.0625 C7.90292969 8.16722656 8.61835938 9.27195312 9.35546875 10.41015625 C9.89816406 11.26480469 10.44085938 12.11945312 11 13 C9.43416404 17.03721561 6.55826135 19.47070582 3.375 22.25 C2.859375 22.70890625 2.34375 23.1678125 1.8125 23.640625 C0.5465398 24.76592296 -0.72607942 25.88372177 -2 27 C-6.02939664 25.65686779 -6.63016687 23.80961157 -8.75 20.1875 C-9.70132813 18.60001953 -9.70132813 18.60001953 -10.671875 16.98046875 C-12 14 -12 14 -11.88671875 11.78515625 C-10.29618843 8.58307538 -7.86124295 7.10213768 -5 5 C-4.34 5 -3.68 5 -3 5 C-2.690625 4.360625 -2.38125 3.72125 -2.0625 3.0625 C-1 1 -1 1 0 0 Z " fill="#FDF101" transform="translate(153,32)"/>
<path d="M0 0 C-14.84282277 11.71801798 -34.12484886 12.62283126 -52.1875 12.3125 C-53.93814029 12.3009666 -55.68879308 12.29119403 -57.43945312 12.28320312 C-59.11980495 12.2698022 -60.80014553 12.25488571 -62.48046875 12.23828125 C-63.2492485 12.23089432 -64.01802826 12.22350739 -64.81010437 12.21589661 C-68.96600578 12.1423707 -72.9207227 11.80197131 -77 11 C-77 10.67 -77 10.34 -77 10 C-76.351521 10.01571045 -75.70304199 10.0314209 -75.03491211 10.04760742 C-56.16187655 10.44361534 -36.66279832 10.11352255 -20.0625 -0.3125 C-13.65508852 -3.84311449 -6.78183154 -1.52830007 0 0 Z " fill="#E8A314" transform="translate(150,178)"/>
<path d="M0 0 C0.81756238 2.06049855 1.62884734 4.12348853 2.4375 6.1875 C2.88996094 7.33605469 3.34242187 8.48460938 3.80859375 9.66796875 C5.90366052 15.52728663 5.90366052 15.52728663 6 18 C4.34765625 20.67578125 4.34765625 20.67578125 2.0625 23.3125 C1.31097656 24.19550781 0.55945312 25.07851562 -0.21484375 25.98828125 C-0.80394531 26.65214844 -1.39304687 27.31601563 -2 28 C-5.57195919 26.80934694 -5.85968362 26.06989774 -7.625 22.875 C-8.05039063 22.12992188 -8.47578125 21.38484375 -8.9140625 20.6171875 C-10.30329567 17.26903561 -10.9163102 14.63851357 -11 11 C-9.19921875 7.91015625 -9.19921875 7.91015625 -6.6875 5.0625 C-5.86636719 4.10472656 -5.04523437 3.14695312 -4.19921875 2.16015625 C-2 0 -2 0 0 0 Z " fill="#FDF006" transform="translate(19,119)"/>
<path d="M0 0 C4.71367801 2.74051047 4.71367801 2.74051047 6.6875 4.5625 C6.6875 5.2225 6.6875 5.8825 6.6875 6.5625 C5.04296875 8.18359375 5.04296875 8.18359375 2.875 10 C-0.1317986 12.51497562 -0.1317986 12.51497562 -2.82421875 15.34765625 C-4.3125 16.5625 -4.3125 16.5625 -6.234375 16.37890625 C-8.41393922 15.52264888 -10.48188269 14.57498561 -12.5625 13.5 C-13.26890625 13.13777344 -13.9753125 12.77554687 -14.703125 12.40234375 C-15.23421875 12.12519531 -15.7653125 11.84804688 -16.3125 11.5625 C-15.6525 10.2425 -14.9925 8.9225 -14.3125 7.5625 C-13.6525 7.5625 -12.9925 7.5625 -12.3125 7.5625 C-12.3125 6.9025 -12.3125 6.2425 -12.3125 5.5625 C-8.56277096 2.19607659 -5.13690827 -0.67845958 0 0 Z " fill="#FEF003" transform="translate(129.3125,11.4375)"/>
<path d="M0 0 C3.15330554 0.60694155 5.18888867 1.6416665 7.75 3.5625 C8.67039062 4.24505859 8.67039062 4.24505859 9.609375 4.94140625 C10.06828125 5.29074219 10.5271875 5.64007813 11 6 C9.54955729 10.10958767 7.48889248 13.43258745 5 17 C-0.22151733 16.59046923 -3.29954246 15.81259261 -7 12 C-7 11.01 -7 10.02 -7 9 C-6.34 9 -5.68 9 -5 9 C-4.731875 8.2575 -4.46375 7.515 -4.1875 6.75 C-3.05770579 4.13363446 -1.79106798 2.19812889 0 0 Z " fill="#FCED08" transform="translate(42,159)"/>
<path d="M0 0 C1 1 1 1 1.09765625 4.16015625 C1.08605469 5.44792969 1.07445312 6.73570313 1.0625 8.0625 C1.05347656 9.35285156 1.04445312 10.64320312 1.03515625 11.97265625 C1.02355469 12.97167969 1.01195312 13.97070312 1 15 C-0.81242052 15.02687279 -2.62495233 15.04633715 -4.4375 15.0625 C-5.44683594 15.07410156 -6.45617187 15.08570312 -7.49609375 15.09765625 C-10 15 -10 15 -11 14 C-11.07244053 11.98035801 -11.08377188 9.95832876 -11.0625 7.9375 C-11.05347656 6.83277344 -11.04445312 5.72804688 -11.03515625 4.58984375 C-11.02355469 3.73519531 -11.01195312 2.88054687 -11 2 C-7.20129266 -0.12157386 -4.35713932 -0.24663053 0 0 Z " fill="#C74402" transform="translate(192,78)"/>
<path d="M0 0 C2.23545885 0.02415501 4.46976132 0.02045912 6.70532227 0.01391602 C17.59928141 0.05631266 17.59928141 0.05631266 19.87915039 2.33618164 C19.87915039 2.99618164 19.87915039 3.65618164 19.87915039 4.33618164 C22.84915039 4.83118164 22.84915039 4.83118164 25.87915039 5.33618164 C25.87915039 6.32618164 25.87915039 7.31618164 25.87915039 8.33618164 C24.89688477 8.04614258 24.89688477 8.04614258 23.89477539 7.75024414 C2.60667286 1.67651997 -17.21742528 1.69079041 -38.26538086 8.88305664 C-40.12084961 9.33618164 -40.12084961 9.33618164 -42.12084961 8.33618164 C-28.30945139 1.82913555 -15.07148971 -0.17467801 0 0 Z " fill="#EBAA0E" transform="translate(95.120849609375,-0.336181640625)"/>
<path d="M0 0 C4.27454425 2.7479213 8.14126153 5.69250989 12 9 C10.66231239 12.09056238 9.35447664 13.78833593 6.6484375 15.77734375 C5.62979614 16.53845459 5.62979614 16.53845459 4.59057617 17.31494141 C3.85943604 17.85038574 3.1282959 18.38583008 2.375 18.9375 C0.83563026 20.08769303 -0.70208778 21.24009943 -2.23828125 22.39453125 C-3.02541504 22.98572754 -3.81254883 23.57692383 -4.62353516 24.18603516 C-9.10818803 27.60918811 -13.46015104 31.19444957 -17.82080078 34.77319336 C-20.83678319 37.24695475 -23.84877922 39.69810069 -27 42 C-27.66 41.67 -28.32 41.34 -29 41 C-22.79230385 35.24857552 -16.50208165 29.70456327 -9.92578125 24.375 C-6.53735242 21.62444629 -3.16566775 18.85589104 0.1875 16.0625 C0.76483887 15.58949463 1.34217773 15.11648926 1.93701172 14.62915039 C3.32961979 13.46370383 4.67027329 12.23670926 6 11 C6 10.34 6 9.68 6 9 C4.44294806 7.42159428 4.44294806 7.42159428 2.5 5.875 C1.8503125 5.33617188 1.200625 4.79734375 0.53125 4.2421875 C0.0259375 3.83226563 -0.479375 3.42234375 -1 3 C-0.67 2.01 -0.34 1.02 0 0 Z " fill="#C44F05" transform="translate(103,85)"/>
<path d="M0 0 C4.81177746 0.06177746 4.81177746 0.06177746 7.1875 2.4375 C8.24501781 5.75105581 8.78590518 8.91623279 9.125 12.375 C7.16733719 12.45582094 5.20873272 12.51410778 3.25 12.5625 C1.61417969 12.61470703 1.61417969 12.61470703 -0.0546875 12.66796875 C-0.98539063 12.57128906 -1.91609375 12.47460938 -2.875 12.375 C-5.4597236 8.49791459 -5.50282738 5.98994043 -5.875 1.375 C-4.21469118 -0.28530882 -2.27746403 0.08581749 0 0 Z " fill="#D76709" transform="translate(176.875,45.625)"/>
<path d="M0 0 C-0.11442461 1.60495567 -0.24194694 3.20898119 -0.375 4.8125 C-0.44460937 5.70582031 -0.51421875 6.59914063 -0.5859375 7.51953125 C-1 10 -1 10 -3 13 C-5.3828125 13.29296875 -5.3828125 13.29296875 -8.125 13.1875 C-9.03507813 13.16042969 -9.94515625 13.13335937 -10.8828125 13.10546875 C-11.58148438 13.07066406 -12.28015625 13.03585938 -13 13 C-13.05395478 11.37536158 -13.09277195 9.75021459 -13.125 8.125 C-13.14820313 7.22007813 -13.17140625 6.31515625 -13.1953125 5.3828125 C-13 3 -13 3 -11 1 C-7.25370961 0.30624252 -3.81446899 0 0 0 Z " fill="#C14007" transform="translate(192,111)"/>
<path d="M0 0 C4.11589777 0.68598296 6.95136058 3.3038796 9.625 6.4375 C10.328125 8.640625 10.328125 8.640625 10.625 10.4375 C0.1546158 11.50486926 0.1546158 11.50486926 -3.5078125 8.94921875 C-7.375 4.4375 -7.375 4.4375 -7.375 1.4375 C-4.92916709 0.87845248 -2.4670218 0.45445138 0 0 Z " fill="#D5670D" transform="translate(158.375,19.5625)"/>
<path d="M0 0 C0.19335938 0.66386719 0.38671875 1.32773438 0.5859375 2.01171875 C2.19357981 7.52266994 2.19357981 7.52266994 4.25 12.875 C5.13646107 15.38663971 4.93316098 16.53984832 4 19 C3.67 19.66 3.34 20.32 3 21 C0 20 0 20 -1.38671875 17.453125 C-2.03060547 15.86757812 -2.03060547 15.86757812 -2.6875 14.25 C-3.12449219 13.20328125 -3.56148437 12.1565625 -4.01171875 11.078125 C-4.95857677 8.12901781 -5.31763482 6.06329176 -5 3 C-2.72413793 0 -2.72413793 0 0 0 Z " fill="#DB8006" transform="translate(24,114)"/>
<path d="M0 0 C1.65322266 0.01740234 1.65322266 0.01740234 3.33984375 0.03515625 C4.99693359 0.04869141 4.99693359 0.04869141 6.6875 0.0625 C7.54214844 0.07410156 8.39679688 0.08570313 9.27734375 0.09765625 C8.5133096 3.56919006 7.19547464 6.09536443 5.27734375 9.09765625 C3.81854266 8.95657878 2.36030824 8.8096321 0.90234375 8.66015625 C-0.31582031 8.53833984 -0.31582031 8.53833984 -1.55859375 8.4140625 C-3.72265625 8.09765625 -3.72265625 8.09765625 -5.72265625 7.09765625 C-3.49748333 0.12544775 -3.49748333 0.12544775 0 0 Z " fill="#CF550F" transform="translate(170.72265625,144.90234375)"/>
<path d="M0 0 C0 0.66 0 1.32 0 2 C-3.64877905 5.19268167 -6.24808062 7.33556076 -11.1875 7.4375 C-14.41911658 7.06665875 -16.3380996 6.77460027 -19 5 C-12.88789007 -0.55646357 -8.07165589 -0.59642778 0 0 Z " fill="#BB3D0F" transform="translate(159,171)"/>
<path d="M0 0 C8.16047799 0.1985957 14.64357196 2.57458419 22 6 C22 6.33 22 6.66 22 7 C8.37522697 8.03333953 8.37522697 8.03333953 3.125 4.0625 C1.2578125 2.41015625 1.2578125 2.41015625 0 1 C0 0.67 0 0.34 0 0 Z " fill="#CF591A" transform="translate(121,2)"/>
<path d="M0 0 C1.34384766 -0.03867187 1.34384766 -0.03867187 2.71484375 -0.078125 C3.48957031 0.03015625 4.26429688 0.1384375 5.0625 0.25 C7.0625 3.25 7.0625 3.25 7.0625 6.25 C3.1025 6.25 -0.8575 6.25 -4.9375 6.25 C-5.2675 4.6 -5.5975 2.95 -5.9375 1.25 C-4.27065985 -0.41684015 -2.28106931 0.03927236 0 0 Z " fill="#C95109" transform="translate(176.9375,45.75)"/>
<path d="M0 0 C-0.875 4.75 -0.875 4.75 -2 7 C-5.3 7 -8.6 7 -12 7 C-11.67 5.02 -11.34 3.04 -11 1 C-7.26513121 0.4254048 -3.78706732 0 0 0 Z " fill="#CE5708" transform="translate(191,117)"/>
<path d="M0 0 C0 3.89140123 -1.28752488 5.05213945 -3.625 8.125 C-7.2583907 12.98029612 -10.68903664 17.9206812 -14 23 C-14.66 22.67 -15.32 22.34 -16 22 C-15.39577633 18.53878602 -14.11994609 16.60014879 -11.875 13.92578125 C-11.25109375 13.17619141 -10.6271875 12.42660156 -9.984375 11.65429688 C-9.00210938 10.49510742 -9.00210938 10.49510742 -8 9.3125 C-7.34515625 8.52810547 -6.6903125 7.74371094 -6.015625 6.93554688 C-1.30406746 1.30406746 -1.30406746 1.30406746 0 0 Z " fill="#D06406" transform="translate(105,41)"/>
<path d="M0 0 C1.8125 1.375 1.8125 1.375 3 3 C3 3.66 3 4.32 3 5 C1.39884424 5.2493357 -0.20620159 5.47378648 -1.8125 5.6875 C-2.70582031 5.81511719 -3.59914062 5.94273438 -4.51953125 6.07421875 C-7 6 -7 6 -8.82421875 4.64453125 C-10 3 -10 3 -10 1 C-6.60647414 0.22433695 -3.47914854 -0.36622616 0 0 Z " fill="#C84F09" transform="translate(161,20)"/>
<path d="M0 0 C0.33 0 0.66 0 1 0 C1 4.62 1 9.24 1 14 C-2.63 14 -6.26 14 -10 14 C-10.33 12.68 -10.66 11.36 -11 10 C-7.37 10 -3.74 10 0 10 C0 6.7 0 3.4 0 0 Z " fill="#D45A10" transform="translate(192,79)"/>
<path d="M0 0 C5.18701457 0.31436452 8.5947359 3.30033267 12 7 C12 7.66 12 8.32 12 9 C6.38241014 8.59874358 3.87417866 6.87417866 0 3 C0 2.01 0 1.02 0 0 Z " fill="#D98304" transform="translate(44,156)"/>
<path d="M0 0 C0 0.33 0 0.66 0 1 C-1.45019531 1.27263672 -1.45019531 1.27263672 -2.9296875 1.55078125 C-9.80971595 2.8713785 -16.49910139 4.27607485 -23.14453125 6.546875 C-25 7 -25 7 -27 6 C-8.97674419 -1.87015504 -8.97674419 -1.87015504 0 0 Z " fill="#E4B337" transform="translate(80,2)"/>
<path d="M0 0 C0.66 0.33 1.32 0.66 2 1 C0.37561031 2.79222332 -1.24948446 4.5837983 -2.875 6.375 C-3.33519531 6.88289063 -3.79539062 7.39078125 -4.26953125 7.9140625 C-6.14601858 9.98091811 -8.02570548 12.02570548 -10 14 C-10.99 14 -11.98 14 -13 14 C-13 13.01 -13 12.02 -13 11 C-10.8763036 8.98423872 -8.77281034 7.14350625 -6.5 5.3125 C-5.87996094 4.80138672 -5.25992188 4.29027344 -4.62109375 3.76367188 C-3.08722544 2.50118027 -1.54443168 1.24954706 0 0 Z " fill="#F9E408" transform="translate(110,33)"/>
<path d="M0 0 C1.46067199 0.45082469 2.91848032 0.91093537 4.375 1.375 C5.18710938 1.63023438 5.99921875 1.88546875 6.8359375 2.1484375 C9 3 9 3 11 5 C6.38 5 1.76 5 -3 5 C-3 4.34 -3 3.68 -3 3 C-2.01 3 -1.02 3 0 3 C0 2.01 0 1.02 0 0 Z " fill="#D57829" transform="translate(132,4)"/>
<path d="M0 0 C0.33 0 0.66 0 1 0 C1.125 6.75 1.125 6.75 0 9 C-0.07033769 10.87379605 -0.0843022 12.75001102 -0.0625 14.625 C-0.05347656 15.62789062 -0.04445312 16.63078125 -0.03515625 17.6640625 C-0.02355469 18.43492188 -0.01195312 19.20578125 0 20 C-0.99 19.34 -1.98 18.68 -3 18 C-2.69272975 15.18683642 -2.37944848 12.37457481 -2.0625 9.5625 C-1.97548828 8.76005859 -1.88847656 7.95761719 -1.79882812 7.13085938 C-1.11328125 1.11328125 -1.11328125 1.11328125 0 0 Z " fill="#EAAC01" transform="translate(178,102)"/>
<path d="M0 0 C5.02192007 0.39131845 7.80838093 3.0539637 11.3125 6.375 C12.13717773 7.1175 12.13717773 7.1175 12.97851562 7.875 C14.38526305 9.18213923 15.70034252 10.58633748 17 12 C17 12.99 17 13.98 17 15 C16.27554688 14.32453125 15.55109375 13.6490625 14.8046875 12.953125 C13.83789062 12.06109375 12.87109375 11.1690625 11.875 10.25 C10.92367187 9.36828125 9.97234375 8.4865625 8.9921875 7.578125 C6.87336589 5.75250847 4.94893454 4.24033089 2.6328125 2.734375 C1.76398438 2.16203125 0.89515625 1.5896875 0 1 C0 0.67 0 0.34 0 0 Z " fill="#EBAB01" transform="translate(134,14)"/>
<path d="M0 0 C0 4.03381023 -1.59573562 5.49433637 -4 8.6875 C-4.7425 9.68136719 -5.485 10.67523438 -6.25 11.69921875 C-7.11625 12.83810547 -7.11625 12.83810547 -8 14 C-8.99 13.67 -9.98 13.34 -11 13 C-7.37 8.71 -3.74 4.42 0 0 Z " fill="#C55504" transform="translate(105,41)"/>
<path d="M0 0 C5.61 0 11.22 0 17 0 C17 0.99 17 1.98 17 3 C11.39 2.34 5.78 1.68 0 1 C0 0.67 0 0.34 0 0 Z " fill="#EC9C05" transform="translate(96,0)"/>
<path d="M0 0 C3.96 0 7.92 0 12 0 C11.01 0.33 10.02 0.66 9 1 C8.67 1.99 8.34 2.98 8 4 C5.36 3.34 2.72 2.68 0 2 C0 1.34 0 0.68 0 0 Z " fill="#B63600" transform="translate(168,145)"/>
<path d="M0 0 C3.3 0.33 6.6 0.66 10 1 C7.75 3.0625 7.75 3.0625 5 5 C2.6875 4.75 2.6875 4.75 1 4 C0.67 2.68 0.34 1.36 0 0 Z " fill="#E5A023" transform="translate(113,0)"/>
<path d="M0 0 C1.5 1.375 1.5 1.375 3 3 C3 3.66 3 4.32 3 5 C0.03 5 -2.94 5 -6 5 C-4 4 -2 3 0 2 C0 1.34 0 0.68 0 0 Z " fill="#E5A420" transform="translate(178,41)"/>
<path d="M0 0 C2.31 0 4.62 0 7 0 C4.37801226 2.15377564 2.35595828 3.40072174 -1 4 C-0.67 2.68 -0.34 1.36 0 0 Z " fill="#E1A634" transform="translate(143,178)"/>
</svg>
