<?xml version="1.0" encoding="UTF-8"?>
<svg version="1.1" xmlns="http://www.w3.org/2000/svg" width="159" height="118">
<path d="M0 0 C5.16900276 4.55364528 7.36313647 9.8428082 7.875 16.625 C7.39444368 23.71320567 4.2556023 28.3086715 -0.5625 33.3125 C-1.04936279 33.83158936 -1.53622559 34.35067871 -2.0378418 34.88549805 C-5.37526285 38.39842851 -8.88843634 41.61598946 -12.6015625 44.73046875 C-14.98619591 46.85772983 -16.97631857 49.22774519 -19.0078125 51.6875 C-20.98915462 54.04246663 -23.17202422 56.16601077 -25.375 58.3125 C-26.15875 59.116875 -26.9425 59.92125 -27.75 60.75 C-29.72728622 62.68020798 -31.69188563 64.43041953 -33.8125 66.1875 C-36.87573318 68.77231064 -39.41958729 71.57105363 -41.97265625 74.65234375 C-43.96935154 77.01611951 -46.15999666 79.15429161 -48.375 81.3125 C-49.179375 82.116875 -49.98375 82.92125 -50.8125 83.75 C-51.658125 84.595625 -52.50375 85.44125 -53.375 86.3125 C-53.89578125 86.85648437 -54.4165625 87.40046875 -54.953125 87.9609375 C-56.39078132 89.44744622 -57.87986576 90.88381617 -59.375 92.3125 C-60.035 92.3125 -60.695 92.3125 -61.375 92.3125 C-61.69404297 93.11880859 -61.69404297 93.11880859 -62.01953125 93.94140625 C-63.87823802 97.19280398 -66.412423 99.64603944 -69.0625 102.25 C-69.60124756 102.78343018 -70.13999512 103.31686035 -70.69506836 103.86645508 C-76.47104521 109.5053425 -81.6601139 114.4047692 -90.125 114.5625 C-90.94484375 114.58828125 -91.7646875 114.6140625 -92.609375 114.640625 C-100.08057453 113.7542115 -104.42046347 109.82930096 -109.4453125 104.6328125 C-110.08943085 103.98303436 -110.73354919 103.33325623 -111.39718628 102.66378784 C-113.44110634 100.59761926 -115.47065551 98.51797606 -117.5 96.4375 C-118.87015816 95.04725439 -120.24124367 93.65792208 -121.61328125 92.26953125 C-124.13616435 89.7141047 -126.65356051 87.15353784 -129.16455078 84.58642578 C-132.77133813 80.90309038 -136.37771189 77.23436296 -140.1640625 73.734375 C-146.44916769 67.81287094 -151.16008192 63.00889486 -151.44921875 54 C-151.08456688 47.83217403 -149.20908585 43.13230833 -144.82421875 38.76953125 C-139.62412282 34.79429731 -134.30709689 34.68830664 -127.9375 34.55078125 C-117.94001425 36.68840156 -110.30690611 47.15101347 -103.375 54.1875 C-102.20750121 55.36504946 -101.03953607 56.54213676 -99.87109375 57.71875 C-97.03365728 60.57803267 -94.20260706 63.4434978 -91.375 66.3125 C-85.907533 61.76249581 -80.87603312 56.91745503 -75.88671875 51.8515625 C-74.27812482 50.23033972 -72.66939704 48.60924974 -71.06054688 46.98828125 C-68.5458679 44.44864575 -66.03282266 41.90743191 -63.5222168 39.36376953 C-61.08552617 36.89705468 -58.64280084 34.43644787 -56.19921875 31.9765625 C-55.44404465 31.20792877 -54.68887054 30.43929504 -53.91081238 29.64736938 C-53.21281021 28.94598846 -52.51480804 28.24460754 -51.7956543 27.52197266 C-51.18167282 26.90053375 -50.56769135 26.27909485 -49.93510437 25.63882446 C-48.375 24.3125 -48.375 24.3125 -46.375 24.3125 C-46.11920166 23.73290527 -45.86340332 23.15331055 -45.59985352 22.55615234 C-43.31620693 18.37303253 -39.66616733 15.27682316 -36.3125 11.9375 C-35.58611328 11.195 -34.85972656 10.4525 -34.11132812 9.6875 C-23.68664723 -0.74639811 -14.40636823 -7.20318411 0 0 Z " fill="#350389" transform="translate(151.375,3.6875)"/>
</svg>
